<svg width="80" height="80" viewBox="0 0 80 80" fill="none" xmlns="http://www.w3.org/2000/svg">
<rect width="80" height="80" rx="12" fill="#F5F5F6"/>
<path d="M39.7296 61C54.6557 58.7385 56.0127 44.2646 56.0127 44.2646V25.0092C43.4773 24.9446 39.7296 19 39.7296 19H39.6004C39.6004 19 35.8527 24.88 23.3173 25.0092V44.2646C23.3173 44.2646 24.6742 58.7385 39.6004 61H39.7296Z" stroke="#636366" stroke-width="1.5" stroke-miterlimit="10" stroke-linecap="round" stroke-linejoin="round"/>
<path d="M42.5728 49.1754H32.4928C31.6528 49.1754 30.942 48.4646 30.942 47.6246V40.7754C30.942 39.9354 31.6528 39.2246 32.4928 39.2246H42.5728C43.4128 39.2246 44.1236 39.9354 44.1236 40.7754V47.6246C44.1236 48.4646 43.4128 49.1754 42.5728 49.1754Z" stroke="#636366" stroke-width="1.5" stroke-miterlimit="10" stroke-linecap="round" stroke-linejoin="round"/>
<path d="M32.4281 39.2247V35.3477C32.4281 35.3477 33.2035 30.76 37.9851 30.8247C37.9851 30.8247 42.0558 31.0831 42.702 35.2831V39.2247" stroke="#636366" stroke-width="1.5" stroke-miterlimit="10" stroke-linecap="round" stroke-linejoin="round"/>
<path d="M43.1542 39.2246H46.9019C47.7419 39.2246 48.4527 39.9354 48.4527 40.7754V47.6246C48.4527 48.4646 47.7419 49.1754 46.9019 49.1754H43.0896" stroke="#636366" stroke-width="1.5" stroke-miterlimit="10" stroke-linecap="round" stroke-linejoin="round"/>
<path d="M39.7296 31.3416C40.3758 31.0186 41.2158 30.8247 42.2496 30.8247C42.2496 30.8247 46.3204 31.0832 46.9666 35.2832V39.2247" stroke="#636366" stroke-width="1.5" stroke-miterlimit="10" stroke-linecap="round" stroke-linejoin="round"/>
</svg>
