<svg width="81" height="80" viewBox="0 0 81 80" fill="none" xmlns="http://www.w3.org/2000/svg">
<rect x="0.329956" width="80" height="80" rx="12" fill="#F5F5F6"/>
<path d="M45.0256 41.0352H34.9309C34.0897 41.0352 33.3779 40.3234 33.3779 39.4822V32.6877C33.3779 31.8464 34.0897 31.1346 34.9309 31.1346H45.0256C45.8668 31.1346 46.5786 31.8464 46.5786 32.6877V39.5469C46.5786 40.3881 45.8668 41.0352 45.0256 41.0352Z" stroke="#636366" stroke-width="1.5" stroke-miterlimit="10" stroke-linecap="round" stroke-linejoin="round"/>
<path d="M34.8661 31.1346V27.252C34.8661 27.252 35.6427 22.6576 40.4312 22.7224C40.4312 22.7224 44.5079 22.9812 45.155 27.1873V31.1346" stroke="#636366" stroke-width="1.5" stroke-miterlimit="10" stroke-linecap="round" stroke-linejoin="round"/>
<path d="M59.1968 57.2773H20.7593C19.724 57.2773 18.9474 56.4361 18.9474 55.4655V48.218C18.9474 47.1826 19.7887 46.4061 20.7593 46.4061H59.1321C60.1674 46.4061 60.9439 47.2474 60.9439 48.218V55.4655C61.0087 56.4361 60.1674 57.2773 59.1968 57.2773Z" stroke="#636366" stroke-width="1.5" stroke-miterlimit="10" stroke-linecap="round" stroke-linejoin="round"/>
<path d="M26.6481 48.4121V55.2066" stroke="#636366" stroke-width="1.5" stroke-miterlimit="10" stroke-linecap="round" stroke-linejoin="round"/>
<path d="M23.2829 51.8417H30.0774" stroke="#636366" stroke-width="1.5" stroke-miterlimit="10" stroke-linecap="round" stroke-linejoin="round"/>
<path d="M24.2536 49.4474L29.0421 54.2359" stroke="#636366" stroke-width="1.5" stroke-miterlimit="10" stroke-linecap="round" stroke-linejoin="round"/>
<path d="M29.0421 49.4474L24.2536 54.2359" stroke="#636366" stroke-width="1.5" stroke-miterlimit="10" stroke-linecap="round" stroke-linejoin="round"/>
<path d="M35.5131 48.4121V55.2066" stroke="#636366" stroke-width="1.5" stroke-miterlimit="10" stroke-linecap="round" stroke-linejoin="round"/>
<path d="M32.1484 51.8417H38.9429" stroke="#636366" stroke-width="1.5" stroke-miterlimit="10" stroke-linecap="round" stroke-linejoin="round"/>
<path d="M33.1191 49.4474L37.9723 54.2359" stroke="#636366" stroke-width="1.5" stroke-miterlimit="10" stroke-linecap="round" stroke-linejoin="round"/>
<path d="M37.9723 49.4474L33.1191 54.2359" stroke="#636366" stroke-width="1.5" stroke-miterlimit="10" stroke-linecap="round" stroke-linejoin="round"/>
<path d="M44.4431 48.4121V55.2066" stroke="#636366" stroke-width="1.5" stroke-miterlimit="10" stroke-linecap="round" stroke-linejoin="round"/>
<path d="M41.0136 51.8417H47.8081" stroke="#636366" stroke-width="1.5" stroke-miterlimit="10" stroke-linecap="round" stroke-linejoin="round"/>
<path d="M41.9841 49.4474L46.8373 54.2359" stroke="#636366" stroke-width="1.5" stroke-miterlimit="10" stroke-linecap="round" stroke-linejoin="round"/>
<path d="M46.8373 49.4474L41.9841 54.2359" stroke="#636366" stroke-width="1.5" stroke-miterlimit="10" stroke-linecap="round" stroke-linejoin="round"/>
<path d="M53.3083 48.4121V55.2066" stroke="#636366" stroke-width="1.5" stroke-miterlimit="10" stroke-linecap="round" stroke-linejoin="round"/>
<path d="M49.8786 51.8417H56.6731" stroke="#636366" stroke-width="1.5" stroke-miterlimit="10" stroke-linecap="round" stroke-linejoin="round"/>
<path d="M50.914 49.4474L55.7025 54.2359" stroke="#636366" stroke-width="1.5" stroke-miterlimit="10" stroke-linecap="round" stroke-linejoin="round"/>
<path d="M55.7025 49.4474L50.914 54.2359" stroke="#636366" stroke-width="1.5" stroke-miterlimit="10" stroke-linecap="round" stroke-linejoin="round"/>
</svg>
