<svg width="183" height="80" viewBox="0 0 183 80" fill="none" xmlns="http://www.w3.org/2000/svg">
<g clip-path="url(#clip0_436_5790)">
<path d="M49.2922 73.1031H35.3603C34.9643 73.1031 34.5846 72.9458 34.3046 72.6659C34.0247 72.3859 33.8674 72.0062 33.8674 71.6102C33.8674 71.2143 34.0247 70.8346 34.3046 70.5546C34.5846 70.2747 34.9643 70.1174 35.3603 70.1174H49.2922C49.6882 70.1174 50.0679 70.2747 50.3479 70.5546C50.6278 70.8346 50.7851 71.2143 50.7851 71.6102C50.7851 72.0062 50.6278 72.3859 50.3479 72.6659C50.0679 72.9458 49.6882 73.1031 49.2922 73.1031ZM57.7706 0H27.4348C23.5211 0 17.3127 2.74824 17.3127 10.1221V32.8692L26.2713 23.2448V10.1221C26.2713 9.55816 26.2713 9.02474 27.5004 8.95854H57.7706C58.339 8.95854 58.877 8.95854 58.9348 10.1221V65.4613H26.2713V57.297L17.3128 66.7403V69.8773C17.3128 73.7903 20.061 80 27.4348 80H57.7706C61.6843 80 67.894 77.2524 67.894 69.8773V10.1221C67.894 2.74824 61.6843 0 57.7706 0Z" fill="#FF6A56"/>
<path d="M16.5346 43.556C19.4632 40.4223 22.3399 37.3444 25.2154 34.2671C29.4438 29.7421 33.6736 25.218 37.9046 20.6947C40.9618 17.4454 45.697 18.1593 47.2467 22.1282C48.1662 24.4812 47.4381 26.5227 45.7593 28.3125C40.9728 33.417 36.1943 38.5291 31.4237 43.6488C27.937 47.3802 24.4488 51.1109 20.959 54.841C18.3561 57.6158 15.1848 57.7248 12.5131 55.0759C8.88492 51.4801 5.24829 47.8909 1.71679 44.2017C-1.03015 41.3321 0.184656 36.6098 3.94264 35.3775C5.89269 34.7376 7.79082 35.0147 9.3288 36.4897C11.4482 38.5215 13.5086 40.6137 15.5956 42.678C15.8785 42.957 16.1751 43.2205 16.5346 43.556Z" fill="#FF6A56"/>
<path d="M82.4741 25.9067H85.6329V12.0236H90.9478V9.15116H77.1604V12.0236H82.4741V25.9067ZM107.727 25.6914L102.652 19.9698C105.836 19.324 106.888 17.0024 106.888 14.7047C106.888 11.8077 104.806 9.17508 100.856 9.15116C98.1998 9.15116 95.5432 9.12661 92.8861 9.12661V25.9067H96.0456V20.3054H99.0861L103.969 25.9067H107.727V25.6914ZM100.856 12.0954C102.844 12.0954 103.729 13.4356 103.729 14.7758C103.729 16.1166 102.867 17.4569 100.856 17.4569H96.0456V12.0954H100.856ZM121.083 9.17508V18.7732C121.083 21.6462 119.599 23.3937 116.989 23.3937C114.381 23.3937 112.657 21.7897 112.657 18.7732V9.17508H109.521V18.7732C109.521 23.8243 112.945 26.2655 116.966 26.2655C121.179 26.2655 124.218 23.728 124.218 18.7732V9.17508H121.083ZM140.159 11.904C138.892 9.3186 136.187 8.57642 133.577 8.57642C130.489 8.60034 127.091 10.013 127.091 13.4595C127.091 17.2176 130.25 18.1273 133.673 18.5339C135.899 18.7731 137.551 19.4197 137.551 20.9997C137.551 22.819 135.684 23.5127 133.696 23.5127C131.662 23.5127 129.723 22.6994 128.982 20.8562L126.348 22.221C127.593 25.2848 130.226 26.3379 133.649 26.3379C137.383 26.3379 140.686 24.7339 140.686 20.9997C140.686 17.0024 137.431 16.0921 133.937 15.6621C131.926 15.4223 130.203 15.015 130.203 13.5552C130.203 12.3113 131.327 11.3292 133.673 11.3292C135.492 11.3292 137.072 12.2389 137.646 13.1964L140.159 11.904ZM147.46 25.9067H150.62V12.0236H155.934V9.15116H142.146V12.0236H147.46V25.9067ZM165.843 9.15116H162.707V25.9067H165.843V9.15116ZM179.821 19.5399L171.612 9.15116H169.051V25.9067H172.21V14.6083L181.018 25.9306V25.9067H182.982V9.1266H179.821V19.5399Z" fill="#FF6A56"/>
<path d="M86.1903 43.2485H79.3469V40.4948H85.9468V38.3557H79.3469V35.5328H86.1903V33.3062H77.0681V45.5097H86.1903V43.2485ZM96.3427 40.8722L90.3692 33.3062H88.5074V45.5097H90.8039V37.2814L97.2132 45.5097H98.6391V33.3062H96.3427V40.8722ZM103.9 45.5097H106.196V35.3938H110.061V33.3062H100.035V35.3938H103.9V45.5097ZM120.543 43.2485H113.701V40.4948H120.3V38.3557H113.701V35.5328H120.543V33.3062H111.421V45.5097H120.543V43.2485ZM133.133 45.3531L129.443 41.1924C131.758 40.7225 132.523 39.0337 132.523 37.3537C132.523 35.2365 131.01 33.3238 128.137 33.3062C126.203 33.3238 124.27 33.3062 122.339 33.3062V45.5097H124.636V41.4358H126.848L130.401 45.5097H133.133V45.3531ZM128.137 35.446C129.582 35.446 130.227 36.4259 130.227 37.4059C130.227 38.3859 129.6 39.3658 128.137 39.3658H124.636V35.446H128.137ZM136.371 35.4976H139.819C142.743 35.4976 142.761 39.8181 139.819 39.8181H136.371V35.4976ZM139.819 33.3062C137.903 33.2892 135.988 33.3062 134.074 33.3062V45.5097H136.371V41.9233H139.819C145.79 41.9233 145.773 33.3062 139.819 33.3062ZM156.656 45.3531L152.967 41.1924C155.281 40.7225 156.047 39.0337 156.047 37.3537C156.047 35.2365 154.532 33.3238 151.659 33.3062C149.726 33.3238 147.793 33.3062 145.863 33.3062V45.5097H148.159V41.4358H150.371L153.924 45.5097H156.656V45.3531ZM151.659 35.446C153.106 35.446 153.751 36.4259 153.751 37.4059C153.751 38.3859 153.123 39.3658 151.659 39.3658H148.159V35.446H151.659ZM159.895 33.3062H157.615V45.5097H159.895V33.3062ZM171.752 35.324C170.83 33.4452 168.863 32.9055 166.965 32.9055C164.718 32.9238 162.247 33.949 162.247 36.4561C162.247 39.1903 164.543 39.852 167.034 40.1483C168.654 40.3231 169.856 40.793 169.856 41.9421C169.856 43.2655 168.498 43.7712 167.051 43.7712C165.571 43.7712 164.16 43.1787 163.621 41.8377L161.707 42.8303C162.612 45.0575 164.526 45.8236 167.017 45.8236C169.734 45.8236 172.135 44.6581 172.135 41.9421C172.135 39.0337 169.769 38.372 167.226 38.0582C165.763 37.8839 164.508 37.5877 164.508 36.526C164.508 35.6202 165.326 34.9057 167.034 34.9057C168.358 34.9057 169.508 35.5674 169.925 36.2649L171.752 35.324ZM183 43.2485H176.158V40.4948H182.756V38.3557H176.158V35.5328H183V33.3062H173.878V45.5097H183V43.2485Z" fill="#FF6A56"/>
<path d="M88.1136 65.3998H90.4881V52.8159H87.7718L83.8273 58.2272L79.8835 52.8159H77.1489V65.3998H79.5228V56.2499L83.539 61.7323H84.0074L88.1136 56.2681V65.3998ZM102.119 63.0611H95.0432V60.2145H101.867V58.0018H95.0432V55.0828H102.119V52.78H92.6864V65.3998H102.119V63.0611ZM114.002 54.8669C113.049 52.9242 111.014 52.3665 109.052 52.3665C106.728 52.3841 104.174 53.4454 104.174 56.0377C104.174 58.8648 106.548 59.5498 109.123 59.8557C110.799 60.0351 112.042 60.5211 112.042 61.7102C112.042 63.0794 110.637 63.6013 109.141 63.6013C107.611 63.6013 106.152 62.9888 105.594 61.6019L103.615 62.6287C104.551 64.932 106.53 65.7233 109.106 65.7233C111.916 65.7233 114.398 64.5184 114.398 61.7102C114.398 58.7024 111.952 58.0182 109.322 57.694C107.809 57.5139 106.512 57.208 106.512 56.1089C106.512 55.1728 107.358 54.435 109.123 54.435C110.493 54.435 111.681 55.1187 112.114 55.8394L114.002 54.8669ZM125.903 54.8669C124.95 52.9242 122.916 52.3665 120.952 52.3665C118.629 52.3841 116.074 53.4454 116.074 56.0377C116.074 58.8648 118.448 59.5498 121.025 59.8557C122.7 60.0351 123.943 60.5211 123.943 61.7102C123.943 63.0794 122.538 63.6013 121.043 63.6013C119.512 63.6013 118.053 62.9888 117.495 61.6019L115.517 62.6287C116.452 64.932 118.431 65.7233 121.007 65.7233C123.817 65.7233 126.299 64.5184 126.299 61.7102C126.299 58.7024 123.852 58.0182 121.223 57.694C119.71 57.5139 118.413 57.208 118.413 56.1089C118.413 55.1728 119.26 54.435 121.025 54.435C122.394 54.435 123.583 55.1187 124.014 55.8394L125.903 54.8669ZM138.147 65.3998H140.74L135.086 52.78H132.494L126.84 65.3998H129.415L130.496 63.0227H137.085L138.147 65.3998ZM136.13 60.8107H131.449L133.789 55.4328L136.13 60.8107ZM152.082 54.3626C150.836 53.1297 149.154 52.4381 147.402 52.4382C142.953 52.4382 140.741 55.7135 140.741 59.2614C140.741 62.5739 142.666 65.6875 147.402 65.6875C149.617 65.6875 151.183 64.8426 152.424 63.4206V58.1101H147.023V60.2321H150.247V62.4663C149.256 63.2594 148.393 63.4754 147.402 63.4754C144.267 63.4754 143.061 61.3306 143.061 59.2614C143.061 56.6685 144.701 54.6144 147.402 54.6144C148.501 54.6144 149.762 55.0651 150.607 55.8753L152.082 54.3626ZM156.745 52.78H154.389V65.3991H156.745V52.78ZM167.261 60.6042L161.084 52.78H159.16V65.3998H161.534V56.8907L168.161 65.3998H169.637V52.78H167.261V60.6042ZM182.653 54.3626C181.408 53.1298 179.726 52.4382 177.974 52.4382C173.525 52.4382 171.312 55.7135 171.312 59.2614C171.312 62.5739 173.237 65.6875 177.974 65.6875C180.188 65.6875 181.754 64.8426 182.995 63.4206V58.1101H177.595V60.2321H180.82V62.4663C179.829 63.2594 178.964 63.4754 177.974 63.4754C174.84 63.4754 173.633 61.3306 173.633 59.2614C173.633 56.6685 175.272 54.6144 177.974 54.6144C179.072 54.6144 180.333 55.0651 181.179 55.8753L182.653 54.3626Z" fill="#FF6A56"/>
</g>
<defs>
<clipPath id="clip0_436_5790">
<rect width="183" height="80" fill="white"/>
</clipPath>
</defs>
</svg>
