<svg width="53" height="32" viewBox="0 0 53 32" fill="none" xmlns="http://www.w3.org/2000/svg">
<path fill-rule="evenodd" clip-rule="evenodd" d="M15.2 0C6.8056 0 0 6.8056 0 15.2C0 23.5944 6.8056 30.4 15.2 30.4H37.6C39.1752 30.4 40.6944 30.16 42.1232 29.7152L46.4 32L51.0144 23.3568C52.1866 21.1565 52.7998 18.7018 52.8 16.2088V15.2C52.8 6.8056 45.9944 0 37.6 0H15.2ZM44.8 15.2C44.8 13.2904 44.0414 11.4591 42.6912 10.1088C41.3409 8.75857 39.5095 8 37.6 8H15.2C14.2545 8 13.3182 8.18623 12.4447 8.54807C11.5711 8.9099 10.7774 9.44025 10.1088 10.1088C9.44025 10.7774 8.9099 11.5711 8.54806 12.4447C8.18623 13.3182 8 14.2545 8 15.2C8 16.1455 8.18623 17.0818 8.54806 17.9553C8.9099 18.8289 9.44025 19.6226 10.1088 20.2912C10.7774 20.9598 11.5711 21.4901 12.4447 21.8519C13.3182 22.2138 14.2545 22.4 15.2 22.4H37.6C39.4999 22.4001 41.3228 21.6492 42.6715 20.311C44.0201 18.9728 44.7852 17.1558 44.8 15.256V15.2Z" fill="#006EFF"/>
</svg>
