<svg width="81" height="80" viewBox="0 0 81 80" fill="none" xmlns="http://www.w3.org/2000/svg">
<rect x="0.659973" width="80" height="80" rx="12" fill="#F5F5F6"/>
<path d="M51.487 41.2277L38.4993 19L21.8286 47.56H45.8655" stroke="#636366" stroke-width="1.5" stroke-miterlimit="10" stroke-linecap="round" stroke-linejoin="round"/>
<path d="M38.4992 28.0461V39.7415" stroke="#636366" stroke-width="1.5" stroke-miterlimit="10" stroke-linecap="round" stroke-linejoin="round"/>
<path d="M38.4993 45.3631C39.3201 45.3631 39.9854 44.6977 39.9854 43.8769C39.9854 43.0561 39.3201 42.3907 38.4993 42.3907C37.6785 42.3907 37.0131 43.0561 37.0131 43.8769C37.0131 44.6977 37.6785 45.3631 38.4993 45.3631Z" fill="#636366"/>
<path d="M57.1085 61H46.3177C45.4131 61 44.7023 60.2892 44.7023 59.3846V52.0185C44.7023 51.1138 45.4131 50.4031 46.3177 50.4031H57.1085C58.0131 50.4031 58.7239 51.1138 58.7239 52.0185V59.3846C58.7885 60.2892 58.0777 61 57.1085 61Z" stroke="#636366" stroke-width="1.5" stroke-miterlimit="10" stroke-linecap="round" stroke-linejoin="round"/>
<path d="M46.2529 50.4031V46.2677C46.2529 46.2677 47.0929 41.2923 52.1975 41.4215C52.1975 41.4215 56.5267 41.68 57.2375 46.2031V50.4677" stroke="#636366" stroke-width="1.5" stroke-miterlimit="10" stroke-linecap="round" stroke-linejoin="round"/>
</svg>
