<svg width="81" height="80" viewBox="0 0 81 80" fill="none" xmlns="http://www.w3.org/2000/svg">
<rect x="0.659973" width="80" height="80" rx="12" fill="#F5F5F6"/>
<path d="M39.1619 48.9355L49.4358 49.1939C49.1127 47.3201 47.5619 45.9632 45.6235 45.8986L39.2912 45.7047C38.0635 45.6401 36.8358 45.3816 35.6727 44.8001L35.0266 44.477C31.8604 42.797 28.0481 43.0555 25.0758 45.0586L24.8173 54.2986L25.9158 53.717C27.0142 53.1355 28.2419 53.0063 29.4696 53.3293L40.2604 56.3663C42.3281 56.8186 44.525 56.5601 46.3989 55.6555L61.325 46.0278C60.485 45.1878 59.1281 44.9293 58.0942 45.5109L49.3712 48.7416" stroke="#636366" stroke-width="1.5" stroke-miterlimit="10" stroke-linecap="round" stroke-linejoin="round"/>
<path d="M19.325 55.8492L19.7127 42.0861L25.1404 42.2154L24.7527 55.9784L19.325 55.8492Z" stroke="#636366" stroke-width="1.5" stroke-miterlimit="10" stroke-linecap="round" stroke-linejoin="round"/>
<path d="M37.8051 45.5754C37.8051 42.0216 40.7128 39.2431 44.2667 39.2431C47.8205 39.2431 50.7282 42.1508 50.7282 45.7046C50.7282 46.5446 50.599 47.32 50.2759 48.0308" stroke="#636366" stroke-width="1.5" stroke-miterlimit="10" stroke-linecap="round" stroke-linejoin="round"/>
<path d="M44.2667 39.243V32.7169" stroke="#636366" stroke-width="1.5" stroke-miterlimit="10" stroke-linecap="round" stroke-linejoin="round"/>
<path d="M44.2666 33.2985C44.0082 29.6154 45.6236 26.2554 48.8543 24.5754C49.4359 24.2524 52.8605 23.2185 53.8943 23.6062C53.9589 23.6062 53.9589 23.6708 53.9589 23.7354C54.2174 25.8677 53.7651 28.2585 52.4082 29.9385C50.922 31.8124 48.5959 33.2339 46.2051 33.4277C45.5589 33.4924 44.9128 33.4277 44.2666 33.2985Z" stroke="#636366" stroke-width="1.5" stroke-miterlimit="10" stroke-linecap="round" stroke-linejoin="round"/>
<path d="M50.1467 27.4185L44.2667 33.2985" stroke="#636366" stroke-width="1.5" stroke-miterlimit="10" stroke-linecap="round" stroke-linejoin="round"/>
<path d="M34.3158 26.8369C34.3158 26.8369 38.3219 25.9969 41.6173 29.4215C41.6173 29.4215 44.5896 32.0707 44.2665 36.4646C44.2665 36.4646 40.6481 37.4984 36.9004 34.2677C36.9004 34.2031 33.8635 31.2954 34.3158 26.8369Z" stroke="#636366" stroke-width="1.5" stroke-miterlimit="10" stroke-linecap="round" stroke-linejoin="round"/>
<path d="M38.1281 30.6492L44.2666 36.5292" stroke="#636366" stroke-width="1.5" stroke-miterlimit="10" stroke-linecap="round" stroke-linejoin="round"/>
</svg>
