<svg width="254" height="32" viewBox="0 0 254 32" fill="none" xmlns="http://www.w3.org/2000/svg">
<path fill-rule="evenodd" clip-rule="evenodd" d="M15.2 0C6.8056 0 0 6.8056 0 15.2C0 23.5944 6.8056 30.4 15.2 30.4H37.6C39.1752 30.4 40.6944 30.16 42.1232 29.7152L46.4 32L51.0144 23.3568C52.1866 21.1565 52.7998 18.7018 52.8 16.2088V15.2C52.8 6.8056 45.9944 0 37.6 0H15.2ZM44.8 15.2C44.8 13.2904 44.0414 11.4591 42.6912 10.1088C41.3409 8.75857 39.5095 8 37.6 8H15.2C14.2545 8 13.3182 8.18623 12.4447 8.54807C11.5711 8.9099 10.7774 9.44025 10.1088 10.1088C9.44025 10.7774 8.9099 11.5711 8.54806 12.4447C8.18623 13.3182 8 14.2545 8 15.2C8 16.1455 8.18623 17.0818 8.54806 17.9553C8.9099 18.8289 9.44025 19.6226 10.1088 20.2912C10.7774 20.9598 11.5711 21.4901 12.4447 21.8519C13.3182 22.2138 14.2545 22.4 15.2 22.4H37.6C39.4999 22.4001 41.3228 21.6492 42.6715 20.311C44.0201 18.9728 44.7852 17.1558 44.8 15.256V15.2Z" fill="#006EFF"/>
<path d="M71.9749 24.0045H68.7829V11.2031H63.9727V8H76.774V11.2031H71.9749V24.0045Z" fill="#1C1C1E"/>
<path d="M91.7271 24.0045H80.7561V8H91.7271V11.2031H83.9593V14.4063H89.216V17.6094H83.9593V20.8013H91.7271V24.0045Z" fill="#1C1C1E"/>
<path d="M108.689 24.0045H104.805L101.725 18.8371L98.6334 24.0045H94.7718L99.6825 16.0022L94.7718 8H98.6334L101.725 13.1674L104.805 8H108.689L103.778 16.0022L108.689 24.0045Z" fill="#1C1C1E"/>
<path d="M119.189 24.0045H115.997V11.2031H111.187V8H123.988V11.2031H119.189V24.0045Z" fill="#1C1C1E"/>
<path d="M71.9749 24.0045H68.7829V11.2031H63.9727V8H76.774V11.2031H71.9749V24.0045Z" stroke="#1C1C1E" stroke-width="0.457143"/>
<path d="M91.7271 24.0045H80.7561V8H91.7271V11.2031H83.9593V14.4063H89.216V17.6094H83.9593V20.8013H91.7271V24.0045Z" stroke="#1C1C1E" stroke-width="0.457143"/>
<path d="M108.689 24.0045H104.805L101.725 18.8371L98.6334 24.0045H94.7718L99.6825 16.0022L94.7718 8H98.6334L101.725 13.1674L104.805 8H108.689L103.778 16.0022L108.689 24.0045Z" stroke="#1C1C1E" stroke-width="0.457143"/>
<path d="M119.189 24.0045H115.997V11.2031H111.187V8H123.988V11.2031H119.189V24.0045Z" stroke="#1C1C1E" stroke-width="0.457143"/>
<rect x="125.486" y="19" width="5.48571" height="5.48571" rx="2.74286" fill="#006EFF"/>
<path d="M148.023 16.0022C148.023 16.7388 147.926 17.4494 147.733 18.1339C147.547 18.811 147.279 19.4472 146.929 20.0424C146.579 20.6302 146.163 21.1696 145.679 21.6607C145.195 22.1443 144.656 22.561 144.061 22.9107C143.466 23.2604 142.826 23.532 142.141 23.7254C141.464 23.9115 140.757 24.0045 140.021 24.0045H135.199V8H140.021C140.757 8 141.464 8.09673 142.141 8.29018C142.826 8.47619 143.466 8.74405 144.061 9.09375C144.656 9.44345 145.195 9.86384 145.679 10.3549C146.163 10.8385 146.579 11.378 146.929 11.9732C147.279 12.561 147.547 13.1972 147.733 13.8817C147.926 14.5588 148.023 15.2656 148.023 16.0022ZM144.82 16.0022C144.82 15.34 144.693 14.7188 144.44 14.1384C144.195 13.558 143.852 13.0521 143.414 12.6205C142.982 12.1815 142.472 11.8356 141.884 11.5826C141.304 11.3296 140.683 11.2031 140.021 11.2031H138.425V20.8013H140.021C140.683 20.8013 141.304 20.6786 141.884 20.433C142.472 20.1801 142.982 19.8378 143.414 19.4063C143.852 18.9673 144.195 18.4576 144.44 17.8772C144.693 17.2894 144.82 16.6644 144.82 16.0022Z" fill="#006EFF"/>
<path d="M163.411 24.0045H152.44V8H163.411V11.2031H155.643V14.4063H160.9V17.6094H155.643V20.8013H163.411V24.0045Z" fill="#006EFF"/>
<path d="M179.146 24.0045H167.94V8H171.143V20.8013H179.146V24.0045Z" fill="#006EFF"/>
<path d="M186.309 24.0045H183.105V8H186.309V24.0045Z" fill="#006EFF"/>
<path d="M203.806 8L198.55 24.0045H195.347L190.112 8H193.751L196.943 18.6808L200.146 8H203.806Z" fill="#006EFF"/>
<path d="M218.603 24.0045H207.632V8H218.603V11.2031H210.835V14.4063H216.092V17.6094H210.835V20.8013H218.603V24.0045Z" fill="#006EFF"/>
<path d="M226.335 11.2031V17.6094H229.539C229.977 17.6094 230.39 17.5275 230.777 17.3638C231.164 17.1927 231.503 16.9621 231.793 16.6719C232.083 16.3817 232.31 16.0432 232.474 15.6563C232.645 15.2619 232.73 14.8452 232.73 14.4063C232.73 13.9673 232.645 13.5543 232.474 13.1674C232.31 12.7731 232.083 12.4308 231.793 12.1406C231.503 11.8504 231.164 11.6235 230.777 11.4598C230.39 11.2887 229.977 11.2031 229.539 11.2031H226.335ZM226.335 24.0045H223.132V8H229.539C230.126 8 230.692 8.07813 231.235 8.23438C231.778 8.38318 232.284 8.59896 232.753 8.8817C233.229 9.15699 233.661 9.49182 234.047 9.88616C234.442 10.2731 234.777 10.7046 235.052 11.1808C235.335 11.657 235.55 12.1667 235.699 12.7098C235.855 13.253 235.934 13.8185 235.934 14.4063C235.934 14.9568 235.863 15.4926 235.722 16.0134C235.588 16.5342 235.39 17.029 235.13 17.4978C234.877 17.9665 234.565 18.3981 234.193 18.7924C233.82 19.1868 233.404 19.529 232.943 19.8192L234.717 24.0045H231.313L229.918 20.779L226.335 20.8013V24.0045Z" fill="#006EFF"/>
<path d="M247.527 24.0045H244.335V18.9933C243.629 18.8147 242.977 18.5283 242.382 18.1339C241.794 17.7396 241.289 17.2708 240.864 16.7277C240.44 16.1771 240.109 15.5707 239.871 14.9085C239.64 14.2388 239.525 13.5357 239.525 12.7991V8H242.728V12.7991C242.728 13.2381 242.81 13.6548 242.974 14.0491C243.145 14.436 243.376 14.7746 243.666 15.0647C243.956 15.3549 244.294 15.5856 244.681 15.7567C245.076 15.9204 245.492 16.0022 245.931 16.0022C246.37 16.0022 246.783 15.9204 247.17 15.7567C247.565 15.5856 247.907 15.3549 248.197 15.0647C248.487 14.7746 248.714 14.436 248.878 14.0491C249.049 13.6548 249.134 13.2381 249.134 12.7991V8H252.326V12.7991C252.326 13.5357 252.207 14.2388 251.969 14.9085C251.739 15.5707 251.411 16.1771 250.987 16.7277C250.563 17.2708 250.057 17.7396 249.469 18.1339C248.882 18.5283 248.234 18.8147 247.527 18.9933V24.0045Z" fill="#006EFF"/>
<path d="M148.023 16.0022C148.023 16.7388 147.926 17.4494 147.733 18.1339C147.547 18.811 147.279 19.4472 146.929 20.0424C146.579 20.6302 146.163 21.1696 145.679 21.6607C145.195 22.1443 144.656 22.561 144.061 22.9107C143.466 23.2604 142.826 23.532 142.141 23.7254C141.464 23.9115 140.757 24.0045 140.021 24.0045H135.199V8H140.021C140.757 8 141.464 8.09673 142.141 8.29018C142.826 8.47619 143.466 8.74405 144.061 9.09375C144.656 9.44345 145.195 9.86384 145.679 10.3549C146.163 10.8385 146.579 11.378 146.929 11.9732C147.279 12.561 147.547 13.1972 147.733 13.8817C147.926 14.5588 148.023 15.2656 148.023 16.0022ZM144.82 16.0022C144.82 15.34 144.693 14.7188 144.44 14.1384C144.195 13.558 143.852 13.0521 143.414 12.6205C142.982 12.1815 142.472 11.8356 141.884 11.5826C141.304 11.3296 140.683 11.2031 140.021 11.2031H138.425V20.8013H140.021C140.683 20.8013 141.304 20.6786 141.884 20.433C142.472 20.1801 142.982 19.8378 143.414 19.4063C143.852 18.9673 144.195 18.4576 144.44 17.8772C144.693 17.2894 144.82 16.6644 144.82 16.0022Z" stroke="#006EFF" stroke-width="0.457143"/>
<path d="M163.411 24.0045H152.44V8H163.411V11.2031H155.643V14.4063H160.9V17.6094H155.643V20.8013H163.411V24.0045Z" stroke="#006EFF" stroke-width="0.457143"/>
<path d="M179.146 24.0045H167.94V8H171.143V20.8013H179.146V24.0045Z" stroke="#006EFF" stroke-width="0.457143"/>
<path d="M186.309 24.0045H183.105V8H186.309V24.0045Z" stroke="#006EFF" stroke-width="0.457143"/>
<path d="M203.806 8L198.55 24.0045H195.347L190.112 8H193.751L196.943 18.6808L200.146 8H203.806Z" stroke="#006EFF" stroke-width="0.457143"/>
<path d="M218.603 24.0045H207.632V8H218.603V11.2031H210.835V14.4063H216.092V17.6094H210.835V20.8013H218.603V24.0045Z" stroke="#006EFF" stroke-width="0.457143"/>
<path d="M226.335 11.2031V17.6094H229.539C229.977 17.6094 230.39 17.5275 230.777 17.3638C231.164 17.1927 231.503 16.9621 231.793 16.6719C232.083 16.3817 232.31 16.0432 232.474 15.6563C232.645 15.2619 232.73 14.8452 232.73 14.4063C232.73 13.9673 232.645 13.5543 232.474 13.1674C232.31 12.7731 232.083 12.4308 231.793 12.1406C231.503 11.8504 231.164 11.6235 230.777 11.4598C230.39 11.2887 229.977 11.2031 229.539 11.2031H226.335ZM226.335 24.0045H223.132V8H229.539C230.126 8 230.692 8.07813 231.235 8.23438C231.778 8.38318 232.284 8.59896 232.753 8.8817C233.229 9.15699 233.661 9.49182 234.047 9.88616C234.442 10.2731 234.777 10.7046 235.052 11.1808C235.335 11.657 235.55 12.1667 235.699 12.7098C235.855 13.253 235.934 13.8185 235.934 14.4063C235.934 14.9568 235.863 15.4926 235.722 16.0134C235.588 16.5342 235.39 17.029 235.13 17.4978C234.877 17.9665 234.565 18.3981 234.193 18.7924C233.82 19.1868 233.404 19.529 232.943 19.8192L234.717 24.0045H231.313L229.918 20.779L226.335 20.8013V24.0045Z" stroke="#006EFF" stroke-width="0.457143"/>
<path d="M247.527 24.0045H244.335V18.9933C243.629 18.8147 242.977 18.5283 242.382 18.1339C241.794 17.7396 241.289 17.2708 240.864 16.7277C240.44 16.1771 240.109 15.5707 239.871 14.9085C239.64 14.2388 239.525 13.5357 239.525 12.7991V8H242.728V12.7991C242.728 13.2381 242.81 13.6548 242.974 14.0491C243.145 14.436 243.376 14.7746 243.666 15.0647C243.956 15.3549 244.294 15.5856 244.681 15.7567C245.076 15.9204 245.492 16.0022 245.931 16.0022C246.37 16.0022 246.783 15.9204 247.17 15.7567C247.565 15.5856 247.907 15.3549 248.197 15.0647C248.487 14.7746 248.714 14.436 248.878 14.0491C249.049 13.6548 249.134 13.2381 249.134 12.7991V8H252.326V12.7991C252.326 13.5357 252.207 14.2388 251.969 14.9085C251.739 15.5707 251.411 16.1771 250.987 16.7277C250.563 17.2708 250.057 17.7396 249.469 18.1339C248.882 18.5283 248.234 18.8147 247.527 18.9933V24.0045Z" stroke="#006EFF" stroke-width="0.457143"/>
</svg>
