<svg width="80" height="80" viewBox="0 0 80 80" fill="none" xmlns="http://www.w3.org/2000/svg">
<rect width="80" height="80" rx="12" fill="#F5F5F6"/>
<path d="M48.1882 27.116C47.1555 26.1479 45.9938 25.438 44.703 24.9216C44.6384 24.8571 43.0895 24.3408 43.0895 24.4698C43.993 21.501 42.6377 20.0811 41.2823 19.4357C39.9915 18.8548 38.507 18.8548 37.2162 19.4357C35.9254 20.0811 34.57 21.4364 35.4736 24.4053C35.4736 24.3408 33.9246 24.8571 33.8601 24.8571C32.5693 25.3734 31.4075 26.0834 30.3749 27.0515C27.2124 30.0849 26.4379 34.99 26.4379 39.1852C26.4379 41.7023 26.7606 44.2194 26.567 46.7365C26.4379 48.4791 26.1152 50.2862 25.2762 51.7707C24.5662 52.9969 23.6626 54.1587 22.8881 55.3204C22.8881 55.3204 22.2427 56.8694 24.0499 56.9339H39.217H54.3841C56.1913 56.8694 55.5458 55.3204 55.5458 55.3204C54.7714 54.0941 53.8678 52.9969 53.1578 51.7707C52.2543 50.2217 51.9316 48.4791 51.867 46.7365C51.7379 45.0584 51.867 43.3158 51.9316 41.6377" stroke="#636366" stroke-width="1.5" stroke-miterlimit="10" stroke-linecap="round" stroke-linejoin="round"/>
<path d="M36.4416 27.9551C35.3445 28.2132 34.3118 28.7296 33.4082 29.375C30.0521 31.763 29.923 36.539 30.0521 40.2179" stroke="#636366" stroke-width="1.5" stroke-miterlimit="10" stroke-linecap="round" stroke-linejoin="round"/>
<path d="M30.0522 46.5428C30.0522 46.5428 30.5685 49.8344 28.1805 53.7069" stroke="#636366" stroke-width="1.5" stroke-miterlimit="10" stroke-linecap="round" stroke-linejoin="round"/>
<path d="M35.2799 56.9985C35.2799 59.1929 37.087 61.0001 39.2814 61.0001C41.4758 61.0001 43.2829 59.1929 43.2829 56.9985" stroke="#636366" stroke-width="1.5" stroke-miterlimit="10" stroke-linecap="round" stroke-linejoin="round"/>
<path d="M39.2815 23.7598C40.0657 23.7598 40.7014 23.1241 40.7014 22.3399C40.7014 21.5558 40.0657 20.92 39.2815 20.92C38.4973 20.92 37.8616 21.5558 37.8616 22.3399C37.8616 23.1241 38.4973 23.7598 39.2815 23.7598Z" stroke="#636366" stroke-width="1.5" stroke-miterlimit="10" stroke-linecap="round" stroke-linejoin="round"/>
<path d="M49.8662 41.6378C53.9297 41.6378 57.2239 38.3436 57.2239 34.2801C57.2239 30.2166 53.9297 26.9224 49.8662 26.9224C45.8027 26.9224 42.5085 30.2166 42.5085 34.2801C42.5085 38.3436 45.8027 41.6378 49.8662 41.6378Z" stroke="#636366" stroke-width="1.5" stroke-miterlimit="10" stroke-linecap="round" stroke-linejoin="round"/>
<path d="M49.8017 29.3104C48.1881 29.3104 46.8973 30.6658 46.8973 32.2793C46.8973 32.7311 47.0264 33.1183 47.1555 33.5056C47.8009 34.99 49.5435 35.6354 50.9634 34.9255C51.6088 34.6028 52.1251 34.151 52.3833 33.5056C53.0933 32.0211 52.4478 30.2785 51.0279 29.5686C50.7052 29.375 50.2535 29.3104 49.8017 29.3104Z" stroke="#636366" stroke-width="1.5" stroke-miterlimit="10" stroke-linecap="round" stroke-linejoin="round"/>
<path d="M55.4812 38.9916C54.4485 36.6681 52.0605 35.0546 49.4789 35.2482C47.9299 35.3128 46.51 36.0227 45.4773 37.0554C44.961 37.5717 44.5092 38.2816 44.2511 38.9916" stroke="#636366" stroke-width="1.5" stroke-miterlimit="10" stroke-linecap="round" stroke-linejoin="round"/>
</svg>
