<svg width="30" height="22" viewBox="0 0 30 22" fill="none" xmlns="http://www.w3.org/2000/svg">
<path d="M8.14624 0C9.31958 0.293334 10.4196 0.99 11.4462 2.09C9.17291 4.58333 8.03624 7.04 8.03624 9.46C8.03624 11.2933 8.47624 12.65 9.35625 13.53C10.3096 14.3367 11.5562 14.96 13.0962 15.4C13.0962 16.8667 12.5096 18.26 11.3362 19.58C10.2362 20.8267 8.76958 21.45 6.93624 21.45C5.17624 21.45 3.67291 20.8633 2.42624 19.69C1.25291 18.4433 0.666245 16.4633 0.666245 13.75C0.666245 8.98333 3.15958 4.4 8.14624 0ZM24.6462 0.109999C25.8196 0.256668 26.9196 0.916668 27.9462 2.09C25.6729 4.73 24.5362 7.18667 24.5362 9.46C24.5362 11.2933 24.9762 12.65 25.8562 13.53C26.8096 14.3367 28.0562 14.9967 29.5962 15.51C29.5962 16.9767 29.0096 18.3333 27.8362 19.58C26.6629 20.8267 25.1596 21.45 23.3262 21.45C21.6396 21.45 20.1729 20.8633 18.9262 19.69C17.6796 18.4433 17.0562 16.5 17.0562 13.86C17.0562 9.02 19.5862 4.43667 24.6462 0.109999Z" fill="#E5E5EA"/>
</svg>
