<svg width="81" height="80" viewBox="0 0 81 80" fill="none" xmlns="http://www.w3.org/2000/svg">
<rect x="0.329956" width="80" height="80" rx="12" fill="#F5F5F6"/>
<path d="M42.5323 25.0123H25.6591V37.6187H42.5323V25.0123Z" stroke="#636366" stroke-width="1.5" stroke-miterlimit="10" stroke-linecap="round" stroke-linejoin="round"/>
<path d="M45.0536 57.7242C44.6011 58.3707 43.8253 58.7585 43.0495 58.7585H25.2066C23.7844 58.7585 22.6854 57.5949 22.6854 56.2373V21.5213C22.6854 20.099 23.849 19 25.2066 19H43.0495C44.4718 19 45.5708 20.1637 45.5708 21.5213V47.3805" stroke="#636366" stroke-width="1.5" stroke-miterlimit="10" stroke-linecap="round" stroke-linejoin="round"/>
<path d="M27.2108 55.7201H41.1747" stroke="#636366" stroke-width="1.5" stroke-miterlimit="10" stroke-linecap="round" stroke-linejoin="round"/>
<path d="M28.439 29.6023L30.8957 34.9681L40.1403 29.0851" stroke="#636366" stroke-width="1.5" stroke-miterlimit="10" stroke-linecap="round" stroke-linejoin="round"/>
<path d="M51.9062 44.4713C51.2597 44.7945 50.9365 45.441 51.0011 46.1521C50.5486 45.6996 49.7728 45.5056 49.1263 45.8289C48.4798 46.1521 48.1566 46.7986 48.2213 47.5097C47.7687 47.0572 46.9929 46.8632 46.3465 47.1865C45.6353 47.5744 45.3121 48.3502 45.506 49.1259L42.4676 43.049C42.0797 42.2732 41.11 41.95 40.2695 42.3379C39.4938 42.7258 39.1705 43.6955 39.5584 44.5359L43.8252 53.1341L43.8898 53.2634L41.3686 51.8411C40.5928 51.4533 39.6231 51.7765 39.1705 52.5523C38.7826 53.3281 39.1059 54.2978 39.8817 54.7503L46.8636 58.3706C47.3808 58.6292 47.7687 59.0171 48.0273 59.5343C48.6091 60.8272 50.2253 61.3444 51.4537 60.7626L56.5609 58.1767C57.8538 57.5302 58.3064 56.0433 57.7245 54.7503C57.5306 54.3624 57.4013 53.9745 57.3366 53.5866V53.522C56.9487 51.6472 56.3023 49.8371 55.4618 48.1562L53.9749 45.247C53.6517 44.4066 52.682 44.0834 51.9062 44.4713Z" stroke="#636366" stroke-width="1.5" stroke-miterlimit="10" stroke-linecap="round" stroke-linejoin="round"/>
<path d="M45.6354 49.1906L46.4112 50.7422" stroke="#636366" stroke-width="1.5" stroke-miterlimit="10" stroke-linecap="round" stroke-linejoin="round"/>
<path d="M48.2859 47.5098L49.191 49.3199" stroke="#636366" stroke-width="1.5" stroke-miterlimit="10" stroke-linecap="round" stroke-linejoin="round"/>
<path d="M51.0011 46.1522L51.9062 47.9623" stroke="#636366" stroke-width="1.5" stroke-miterlimit="10" stroke-linecap="round" stroke-linejoin="round"/>
</svg>
