<svg width="36" height="36" viewBox="0 0 36 36" fill="none" xmlns="http://www.w3.org/2000/svg">
<g clip-path="url(#clip0_436_5709)">
<path d="M18 0C8.05922 0 0 8.05922 0 18C0 27.9408 8.05922 36 18 36C27.9408 36 36 27.9408 36 18C36 8.05922 27.9408 0 18 0Z" fill="#636366"/>
<path d="M19.9692 16.3712L27.6748 7.41406H25.8488L19.158 15.1914L13.8142 7.41406H7.65063L15.7316 19.1748L7.65063 28.5677H9.47672L16.5423 20.3546L22.1859 28.5677H28.3494L19.9687 16.3712H19.9692ZM10.1347 8.78872H12.9394L25.8496 27.2555H23.0449L10.1347 8.78872Z" fill="white"/>
</g>
<defs>
<clipPath id="clip0_436_5709">
<rect width="36" height="36" fill="white"/>
</clipPath>
</defs>
</svg>
